<svg xmlns="http://www.w3.org/2000/svg" width="410" height="404" viewBox="0 0 410 404" fill="none">
  <path d="M399.641 59.525L215.643 388.545c-3.739 6.684-13.343 6.738-17.146.097L10.937 59.571c-4.123-7.213 2.035-15.964 10.22-14.531l184.17 32.22a9.2 9.2 0 003.155-.003l180.51-32.198c8.169-1.457 14.347 7.266 10.649 14.466z" fill="#41D1FF"/>
  <path d="M292.965 1.574L156.425 28.339a4.6 4.6 0 00-3.72 3.822l-8.4 141.986a4.6 4.6 0 005.558 4.8l38.002-8.771a4.6 4.6 0 015.52 5.316l-11.284 55.243a4.6 4.6 0 005.869 5.246l23.475-7.202a4.6 4.6 0 015.86 5.266l-17.935 86.676c-1.122 5.422 6.096 8.379 9.106 3.732l2.01-3.103 111.267-222.087c1.862-3.719-1.357-7.88-5.482-7.083l-39.122 7.548a4.6 4.6 0 01-5.302-5.815l25.525-88.445c1.194-4.136-2.646-7.945-6.813-7.128z" fill="#BD34FE"/>
  <path d="M193.251 66.142L82.402 44.95a2.3 2.3 0 00-2.622 3.386l73.36 128.83a2.3 2.3 0 002.525 1.138l37.914-8.748a2.3 2.3 0 001.843-2.658l-10.975-56.716a2.3 2.3 0 012.757-2.637l23.44 5.397a2.3 2.3 0 002.778-2.58l-7.09-42.507a2.3 2.3 0 00-1.781-1.713z" fill="#FFEA83"/>
</svg>
